<svg viewBox="0 0 40 26" xmlns="http://www.w3.org/2000/svg"><path d="m36.37 9.78 2.06 4.09-4.33 4.13z" fill="#008c44"/><path d="m34.94 9.78 2.06 4.09-4.33 4.13z" fill="#f47920"/><g fill="#1b3281"><path d="m1.89 16.48 2.11-7.41h3.23a3.11 3.11 0 0 1 2.07.5 1.6 1.6 0 0 1 .2 1.64 2.83 2.83 0 0 1 -.58 1.12 2.67 2.67 0 0 1 -1 .71.9.9 0 0 1 .69.52 2 2 0 0 1 0 1.13l-.25 1c-.07.29 0 .44.07.45l-.07.28h-2.3c0-.18 0-.33 0-.46a1.53 1.53 0 0 1 .05-.31l.25-.65a1.12 1.12 0 0 0 0-.81c-.1-.16-.32-.23-.67-.23h-.91l-.71 2.55zm3.35-4.22h1a1.4 1.4 0 0 0 .76-.16.88.88 0 0 0 .35-.53.57.57 0 0 0 -.04-.57 1.17 1.17 0 0 0 -.74-.15h-.94z"/><path d="m15.6 11-1.51 5.47h-1.85l.23-.8a3.45 3.45 0 0 1 -1 .71 2.38 2.38 0 0 1 -1.05.24 1.7 1.7 0 0 1 -.78-.17 1 1 0 0 1 -.46-.45 1.31 1.31 0 0 1 -.12-.71 7.35 7.35 0 0 1 .29-1.41l.79-2.88h2l-.78 2.83a1.68 1.68 0 0 0 -.09.86c.06.16.22.24.47.24a.83.83 0 0 0 .64-.28 1.84 1.84 0 0 0 .42-.83l.79-2.82z"/><path d="m14.87 16.48 2.05-7.41h2.83a6.81 6.81 0 0 1 1.45.12 1.8 1.8 0 0 1 .81.38 1.56 1.56 0 0 1 .47.86 2.82 2.82 0 0 1 -.11 1.22 3.25 3.25 0 0 1 -3.37 2.56h-1.3l-.63 2.27zm3.33-4.08h.71a2.07 2.07 0 0 0 1-.16.94.94 0 0 0 .4-.59c.07-.28 0-.48-.07-.59a1.44 1.44 0 0 0 -.88-.17h-.71z"/><path d="m24.74 16.48v-.52a3.53 3.53 0 0 1 -1 .54 3.06 3.06 0 0 1 -1.06.18 1.43 1.43 0 0 1 -1.2-.46 1.46 1.46 0 0 1 -.11-1.28 2.06 2.06 0 0 1 .8-1.2 4.61 4.61 0 0 1 1.89-.56l.46-.06c.65-.07 1-.25 1.1-.53s0-.27-.08-.34a.83.83 0 0 0 -.52-.11.93.93 0 0 0 -.52.13.78.78 0 0 0 -.31.41h-2a2.29 2.29 0 0 1 1.08-1.39 4.19 4.19 0 0 1 2.14-.47 4.25 4.25 0 0 1 1.12.13 1.71 1.71 0 0 1 .73.33 1 1 0 0 1 .34.59 2.41 2.41 0 0 1 -.12 1l-.85 3a.63.63 0 0 0 0 .27.27.27 0 0 0 .11.19v.16zm.49-2.48a6.15 6.15 0 0 1 -.84.26c-.54.14-.84.34-.91.58a.35.35 0 0 0 .05.36.46.46 0 0 0 .38.13 1.21 1.21 0 0 0 .81-.25 1.54 1.54 0 0 0 .45-.8c0-.08 0-.13 0-.18z"/><path d="m26.78 18.63.45-1.63h.57a.81.81 0 0 0 .45-.1.58.58 0 0 0 .23-.36 1.57 1.57 0 0 0 0-.23 1.5 1.5 0 0 0 0-.3l-.31-5h2v3.32l1.83-3.33h1.9l-3.15 5.44q-.54.91-.78 1.26a2.38 2.38 0 0 1 -.47.51 1.68 1.68 0 0 1 -.64.35 4 4 0 0 1 -1.07.11h-.47z"/></g></svg>