<svg xmlns:xlink="http://www.w3.org/1999/xlink" viewBox="0 0 40 26" xmlns="http://www.w3.org/2000/svg"><clipPath id="a"><path d="m7.99 3.93h23.73v18.98h-23.73z"/></clipPath><g clip-path="url(#a)"><path d="m21.92 22.92c5.18 0 9.89-4.27 9.89-9.4a9.67 9.67 0 0 0 -9.89-9.59h-4.42a9.35 9.35 0 0 0 -9.5 9.59 9.54 9.54 0 0 0 9.51 9.4z" fill="#004a97"/><path d="m19.48 18.55v-10.25a5.37 5.37 0 0 1 3.52 5.13 5.37 5.37 0 0 1 -3.52 5.12zm-7.48-5.12a5.37 5.37 0 0 1 3.52-5.13v10.25a5.5 5.5 0 0 1 -3.52-5.12zm5.5-8.74a8.66 8.66 0 0 0 -8.57 8.74 8.67 8.67 0 1 0 17.33 0 8.82 8.82 0 0 0 -8.76-8.74z" fill="#fff"/><path d="m21.92 22.92c5.18 0 9.89-4.27 9.89-9.4a9.67 9.67 0 0 0 -9.89-9.59h-4.42a9.35 9.35 0 0 0 -9.5 9.59 9.54 9.54 0 0 0 9.51 9.4z" fill="#004a97"/><path d="m19.48 18.55v-10.25a5.37 5.37 0 0 1 3.52 5.13 5.37 5.37 0 0 1 -3.52 5.12zm-7.48-5.12a5.37 5.37 0 0 1 3.52-5.13v10.25a5.5 5.5 0 0 1 -3.52-5.12zm5.5-8.74a8.66 8.66 0 0 0 -8.57 8.74 8.67 8.67 0 1 0 17.33 0 8.82 8.82 0 0 0 -8.76-8.74z" fill="#fff"/></g></svg>
